<svg width="71" height="71" viewBox="0 0 71 71" fill="none" xmlns="http://www.w3.org/2000/svg">
<rect width="71" height="71" rx="35.5" fill="#FCFCFC" fill-opacity="0.9"/>
<path fill-rule="evenodd" clip-rule="evenodd" d="M26.3229 32.1697C26.3972 32.072 26.488 31.9917 26.5899 31.9335C26.6918 31.8753 26.8029 31.8403 26.9169 31.8305C27.0308 31.8207 27.1454 31.8362 27.254 31.8763C27.3626 31.9163 27.4632 31.9801 27.5499 32.0639L35.1022 39.3519L42.6545 32.0639C42.8305 31.9048 43.0547 31.829 43.2795 31.8525C43.5043 31.876 43.7122 31.9971 43.8592 32.1901C44.0062 32.3831 44.0808 32.6328 44.0672 32.8866C44.0536 33.1404 43.9529 33.3783 43.7864 33.55L35.6681 41.3851C35.5105 41.5371 35.3098 41.6207 35.1022 41.6207C34.8946 41.6207 34.6938 41.5371 34.5362 41.3851L26.418 33.55C26.243 33.3809 26.1349 33.1405 26.1173 32.8817C26.0997 32.6229 26.174 32.3668 26.324 32.1697" fill="#14213D"/>
</svg>
