<svg width="38" height="39" viewBox="0 0 38 39" fill="none" xmlns="http://www.w3.org/2000/svg">
<g filter="url(#filter0_d_209_61)">
<path d="M20.5 29.8316C23.5259 29.4465 26.2917 27.9238 28.2352 25.5727C30.1787 23.2217 31.1541 20.2189 30.9631 17.1745C30.7721 14.1302 29.429 11.2728 27.2069 9.18313C24.9848 7.09347 22.0503 5.92834 19 5.92456C15.9459 5.92229 13.0059 7.08457 10.779 9.17458C8.55209 11.2646 7.20586 14.125 7.01461 17.1731C6.82337 20.2212 7.8015 23.2275 9.74972 25.5795C11.6979 27.9314 14.4696 29.4521 17.5 29.8316V20.9246H14.5V17.9246H17.5V15.4436C17.5 13.4381 17.71 12.7106 18.1 11.9771C18.4841 11.2513 19.0779 10.658 19.804 10.2746C20.377 9.96706 21.0895 9.78256 22.3345 9.70306C22.828 9.67156 23.467 9.71056 24.2515 9.82306V12.6731H23.5015C22.126 12.6731 21.5575 12.7376 21.2185 12.9191C21.0163 13.0232 20.8516 13.1878 20.7475 13.3901C20.5675 13.7291 20.5015 14.0651 20.5015 15.4421V17.9246H24.2515L23.5015 20.9246H20.5015L20.5 29.8316ZM19 32.9246C10.7155 32.9246 4 26.2091 4 17.9246C4 9.64006 10.7155 2.92456 19 2.92456C27.2845 2.92456 34 9.64006 34 17.9246C34 26.2091 27.2845 32.9246 19 32.9246Z" fill="#D8E4FF"/>
</g>
<defs>
<filter id="filter0_d_209_61" x="0" y="0.924561" width="38" height="38" filterUnits="userSpaceOnUse" color-interpolation-filters="sRGB">
<feFlood flood-opacity="0" result="BackgroundImageFix"/>
<feColorMatrix in="SourceAlpha" type="matrix" values="0 0 0 0 0 0 0 0 0 0 0 0 0 0 0 0 0 0 127 0" result="hardAlpha"/>
<feOffset dy="2"/>
<feGaussianBlur stdDeviation="2"/>
<feComposite in2="hardAlpha" operator="out"/>
<feColorMatrix type="matrix" values="0 0 0 0 0 0 0 0 0 0 0 0 0 0 0 0 0 0 0.25 0"/>
<feBlend mode="normal" in2="BackgroundImageFix" result="effect1_dropShadow_209_61"/>
<feBlend mode="normal" in="SourceGraphic" in2="effect1_dropShadow_209_61" result="shape"/>
</filter>
</defs>
</svg>
