<svg width="38" height="40" viewBox="0 0 38 40" fill="none" xmlns="http://www.w3.org/2000/svg">
<g filter="url(#filter0_d_209_62)">
<path d="M29.6281 7.31158C28.246 5.91549 26.5998 4.80857 24.7854 4.05538C22.971 3.30219 21.0248 2.91781 19.0603 2.92465C10.8291 2.92465 4.1206 9.63319 4.1206 17.8643C4.1206 20.5025 4.81407 23.0653 6.11055 25.3267L4 33.0754L11.9146 30.995C14.1005 32.186 16.5578 32.8191 19.0603 32.8191C27.2915 32.8191 34 26.1106 34 17.8794C34 13.8844 32.4472 10.1307 29.6281 7.31158ZM19.0603 30.2865C16.8291 30.2865 14.6432 29.6834 12.7286 28.5528L12.2764 28.2814L7.57286 29.5176L8.82412 24.9347L8.52261 24.4674C7.28303 22.4879 6.62483 20.1999 6.62312 17.8643C6.62312 11.0201 12.201 5.44224 19.0452 5.44224C22.3618 5.44224 25.4824 6.73872 27.8191 9.09048C28.9761 10.2422 29.893 11.6121 30.5167 13.1208C31.1403 14.6295 31.4583 16.2469 31.4523 17.8794C31.4824 24.7236 25.9045 30.2865 19.0603 30.2865ZM25.8744 21C25.4975 20.8191 23.6583 19.9146 23.3266 19.7789C22.9799 19.6583 22.7387 19.598 22.4824 19.9598C22.2261 20.3367 21.5176 21.1809 21.3065 21.4221C21.0955 21.6784 20.8693 21.7086 20.4925 21.5126C20.1156 21.3317 18.9095 20.9246 17.4925 19.6583C16.3769 18.6633 15.6382 17.4422 15.4121 17.0653C15.201 16.6885 15.3819 16.4925 15.5779 16.2965C15.7437 16.1307 15.9548 15.8593 16.1357 15.6483C16.3166 15.4372 16.392 15.2714 16.5126 15.0302C16.6332 14.7739 16.5729 14.5628 16.4824 14.3819C16.392 14.201 15.6382 12.3618 15.3367 11.6081C15.0352 10.8844 14.7186 10.9749 14.4925 10.9598H13.7688C13.5126 10.9598 13.1206 11.0503 12.7739 11.4272C12.4422 11.804 11.4774 12.7086 11.4774 14.5478C11.4774 16.387 12.8191 18.1659 13 18.4071C13.1809 18.6633 15.6382 22.4322 19.3769 24.0452C20.2663 24.4372 20.9598 24.6633 21.5025 24.8292C22.392 25.1156 23.206 25.0704 23.8543 24.9799C24.5779 24.8744 26.0703 24.0754 26.3719 23.201C26.6884 22.3267 26.6884 21.588 26.5829 21.4221C26.4774 21.2563 26.2513 21.1809 25.8744 21Z" fill="#D8E4FF"/>
</g>
<defs>
<filter id="filter0_d_209_62" x="0" y="0.924561" width="38" height="38.1509" filterUnits="userSpaceOnUse" color-interpolation-filters="sRGB">
<feFlood flood-opacity="0" result="BackgroundImageFix"/>
<feColorMatrix in="SourceAlpha" type="matrix" values="0 0 0 0 0 0 0 0 0 0 0 0 0 0 0 0 0 0 127 0" result="hardAlpha"/>
<feOffset dy="2"/>
<feGaussianBlur stdDeviation="2"/>
<feComposite in2="hardAlpha" operator="out"/>
<feColorMatrix type="matrix" values="0 0 0 0 0 0 0 0 0 0 0 0 0 0 0 0 0 0 0.25 0"/>
<feBlend mode="normal" in2="BackgroundImageFix" result="effect1_dropShadow_209_62"/>
<feBlend mode="normal" in="SourceGraphic" in2="effect1_dropShadow_209_62" result="shape"/>
</filter>
</defs>
</svg>
